# xmcd
#
# Track frame offsets:
# 150
# 22197
# 37225
# 59557
# 80309
# 97067
# 114532
# 138746
# 157629
# 168388
# 180665
# 195685
# 217338
# 231170
#
# Disc length: 3384 seconds
#
#
# Revision: 0
# Processed by: cddbd v1.5.2PL0 Copyright (c) Steve Scherf et al.
# Submitted via: FreeRIP 2.91 
#
DISCID=cd0d360e
DTITLE=ZÉ RAMALHO - Perfil
DYEAR=1900
DGENRE=
TTITLE0=Admiravel gado novo
TTITLE1=Mistério da meia-noite
TTITLE2=Avohai
TTITLE3=FRevo mulher
TTITLE4=Pot-pourri: Baião/Imbalança/Asa Branca
TTITLE5=Vila do sossego
TTITLE6=A dança das borboletas
TTITLE7=A peleja do diabo com o dono do céu
TTITLE8=Bicho de 7 cabeças
TTITLE9=Ave de prata
TTITLE10=Pelo vinho e pelo pão
TTITLE11=Kryptônia
TTITLE12=Garota de aluguel (Táxi boy)
TTITLE13=Eternas ondas
EXTD=
EXTT0=
EXTT1=
EXTT2=
EXTT3=
EXTT4=
EXTT5=
EXTT6=
EXTT7=
EXTT8=
EXTT9=
EXTT10=
EXTT11=
EXTT12=
EXTT13=
PLAYORDER=
